<svg width="6" height="9" viewBox="0 0 6 9" fill="none" xmlns="http://www.w3.org/2000/svg">
<path d="M3.00001 8.25C2.47373 7.8011 1.98592 7.30897 1.54168 6.77875C0.875011 5.9825 0.0833439 4.79667 0.0833439 3.66667C0.082753 2.48648 0.793447 1.42225 1.88379 0.970582C2.97413 0.518918 4.22921 0.76885 5.06334 1.60375C5.61187 2.14984 5.91914 2.89266 5.91669 3.66667C5.91669 4.79667 5.12501 5.9825 4.45834 6.77875C4.0141 7.30897 3.52629 7.8011 3.00001 8.25ZM3.00001 2.41667C2.55343 2.41667 2.14077 2.65492 1.91748 3.04167C1.69419 3.42842 1.69419 3.90492 1.91748 4.29167C2.14077 4.67842 2.55343 4.91667 3.00001 4.91667C3.69037 4.91667 4.25001 4.35702 4.25001 3.66667C4.25001 2.97631 3.69037 2.41667 3.00001 2.41667Z" fill="#79819A"/>
</svg>
