<svg width="8" height="7" viewBox="0 0 8 7" fill="none" xmlns="http://www.w3.org/2000/svg">
<path d="M6.91561 6.83333C3.36077 6.83837 0.662857 4.10812 0.666661 0.584379C0.666661 0.354261 0.853209 0.166667 1.08333 0.166667H2.18306C2.38955 0.166667 2.56496 0.318387 2.59528 0.522637C2.66795 1.01217 2.81048 1.48874 3.01853 1.93779L3.06134 2.03021C3.12088 2.15871 3.08052 2.31139 2.96527 2.3937C2.6247 2.63691 2.49454 3.12648 2.75986 3.50848C3.09281 3.98785 3.51251 4.40746 3.99177 4.74026C4.37375 5.0055 4.86324 4.87537 5.10645 4.53485C5.18881 4.41954 5.34158 4.37917 5.47015 4.43873L5.56215 4.48134C6.01123 4.68937 6.48784 4.83191 6.97742 4.90456C7.18167 4.93488 7.33332 5.11028 7.33332 5.31678V6.41666C7.33332 6.64678 7.14632 6.83333 6.9162 6.83332L6.91561 6.83333Z" fill="#79819A"/>
</svg>
